<svg width="24" height="24" viewBox="0 0 24 24" fill="none" xmlns="http://www.w3.org/2000/svg">
<path d="M5 1.65H19C19.7456 1.65 20.35 2.25442 20.35 3V21C20.35 21.7456 19.7456 22.35 19 22.35H5C4.25442 22.35 3.65 21.7456 3.65 21V3C3.65 2.25442 4.25442 1.65 5 1.65Z" stroke="#C5C5C5" stroke-width="1.3"/>
<path d="M7 17H17" stroke="#C5C5C5" stroke-width="1.3"/>
<path fill-rule="evenodd" clip-rule="evenodd" d="M12 14C14.7614 14 17 11.7614 17 9C17 6.23858 14.7614 4 12 4C9.23858 4 7 6.23858 7 9C7 11.7614 9.23858 14 12 14ZM8.14645 7.35355L9.04289 8.25L8.14645 9.14645L8.85355 9.85355L9.75 8.95711L10.6464 9.85355L11.3536 9.14645L10.4571 8.25L11.3536 7.35355L10.6464 6.64645L9.75 7.54289L8.85355 6.64645L8.14645 7.35355ZM12.6464 7.35355L13.5429 8.25L12.6464 9.14645L13.3536 9.85355L14.25 8.95711L15.1464 9.85355L15.8536 9.14645L14.9571 8.25L15.8536 7.35355L15.1464 6.64645L14.25 7.54289L13.3536 6.64645L12.6464 7.35355ZM10.3536 12.3536C10.6938 12.0133 11.9425 11.3486 13.7428 12.4287L14.2572 11.5713C12.0575 10.2514 10.3062 10.9867 9.64645 11.6464L10.3536 12.3536Z" fill="#C5C5C5"/>
</svg>
